<svg width="1025" height="839" viewBox="0 0 1025 839" fill="none" xmlns="http://www.w3.org/2000/svg">
<path d="M345.122 111.199L349.653 113.312L349.653 113.312L345.122 111.199ZM321.804 280.694L326.764 280.059L326.764 280.059L321.804 280.694ZM404.651 38.3927L407.497 42.5039L407.497 42.5039L404.651 38.3927ZM511.65 7L511.735 2.00074L511.65 1.99926L511.564 2.00074L511.65 7ZM618.98 38.3931L621.82 34.2779L621.82 34.2779L618.98 38.3931ZM678.693 111.2L683.223 109.082L683.223 109.082L678.693 111.2ZM702.083 280.694L697.123 280.057L697.123 280.057L702.083 280.694ZM701.956 281.677L696.997 281.041L695.735 290.874L704.393 286.043L701.956 281.677ZM702.822 281.194L700.386 276.828L700.386 276.828L702.822 281.194ZM719.123 278.191L717.474 282.912L717.474 282.912L719.123 278.191ZM728.688 288.798L724.052 290.67L724.052 290.671L728.688 288.798ZM730.526 335.861L725.585 335.097L725.585 335.097L730.526 335.861ZM713.1 390.008L717.499 392.384L717.499 392.384L713.1 390.008ZM681.995 418.55L681.291 413.6L681.291 413.6L681.995 418.55ZM681.616 418.604L680.912 413.654L677.122 414.193L676.654 417.993L681.616 418.604ZM681.569 418.984L686.532 419.596L686.532 419.595L681.569 418.984ZM665.96 467.646L661.712 465.009L661.712 465.009L665.96 467.646ZM646.502 493.35L650.239 496.672L650.301 496.601L650.361 496.529L646.502 493.35ZM646.501 493.351L642.764 490.029L642.702 490.099L642.642 490.171L646.501 493.351ZM634.335 508.352L638.26 511.45L638.26 511.449L634.335 508.352ZM634.258 508.45L630.334 505.351L629.562 506.329L629.339 507.555L634.258 508.45ZM634.236 508.572L639.155 509.468L639.155 509.467L634.236 508.572ZM674.006 629.651L672.303 634.352L672.306 634.353L674.006 629.651ZM674.056 629.669L672.356 634.371L672.86 634.553L673.391 634.625L674.056 629.669ZM674.109 629.676L674.774 624.721L674.774 624.72L674.109 629.676ZM864.436 667.243L866.067 662.516L866.067 662.516L864.436 667.243ZM946.832 725.05L942.596 727.707L942.596 727.707L946.832 725.05ZM978.68 827.219L983.59 826.272L983.59 826.272L978.68 827.219ZM981.991 844.573L977.078 845.505L977.078 845.505L981.991 844.573ZM1016.89 997.827L1012.08 999.192L1013.45 1004L1018.26 1002.64L1016.89 997.827ZM1017.86 997.554L1019.22 1002.36L1024.03 1001L1022.67 996.188L1017.86 997.554ZM982.974 844.389L987.886 843.457L987.885 843.451L982.974 844.389ZM982.968 844.36L978.056 845.292L978.057 845.299L982.968 844.36ZM979.662 827.029L974.753 827.976L974.753 827.977L979.662 827.029ZM947.679 724.519L943.443 727.175L943.443 727.175L947.679 724.519ZM864.762 666.298L866.393 661.571L866.393 661.571L864.762 666.298ZM674.296 628.692L672.585 633.39L673.094 633.576L673.631 633.648L674.296 628.692ZM635.197 508.874L631.273 505.775L630.501 506.754L630.278 507.981L635.197 508.874ZM647.221 494.051L643.362 490.872L643.362 490.872L647.221 494.051ZM666.81 468.173L662.561 465.536L662.561 465.536L666.81 468.173ZM682.515 419.483L681.732 414.545L678.02 415.133L677.553 418.863L682.515 419.483ZM713.98 390.483L709.581 388.107L709.581 388.107L713.98 390.483ZM731.515 336.014L736.456 336.778L736.456 336.778L731.515 336.014ZM729.615 288.424L724.979 290.296L724.979 290.296L729.615 288.424ZM719.453 277.247L717.803 281.968L717.803 281.968L719.453 277.247ZM703.197 279.852L698.236 279.233L697.046 288.762L705.535 284.272L703.197 279.852ZM679.599 110.776L675.07 112.894L675.07 112.894L679.599 110.776ZM619.548 37.5701L622.388 33.4548L622.388 33.4548L619.548 37.5701ZM511.658 6L511.744 1.00073L506.745 0.915153L506.659 5.91425L511.658 6ZM511.65 6.49459L506.65 6.58034H516.649L511.65 6.49459ZM511.641 6L516.64 5.91425L516.555 0.914889L511.555 1.00074L511.641 6ZM404.082 37.5705L406.928 41.6817L406.928 41.6817L404.082 37.5705ZM344.215 110.777L348.747 112.89L348.747 112.89L344.215 110.777ZM320.69 279.851L318.347 284.268L326.839 288.773L325.652 279.234L320.69 279.851ZM304.485 277.248L302.831 272.529L302.831 272.529L304.485 277.248ZM294.353 288.424L289.715 286.557L289.715 286.557L294.353 288.424ZM292.46 336.014L297.401 335.252L297.401 335.252L292.46 336.014ZM309.94 390.483L314.343 388.112L314.343 388.112L309.94 390.483ZM341.309 419.483L346.27 418.865L345.806 415.135L342.094 414.545L341.309 419.483ZM356.965 468.172L352.713 470.803L352.713 470.803L356.965 468.172ZM376.494 494.05L372.63 497.223L372.63 497.223L376.494 494.05ZM388.481 508.873L393.401 507.983L393.179 506.758L392.41 505.781L388.481 508.873ZM349.503 628.692L350.171 633.648L350.709 633.575L351.219 633.389L349.503 628.692ZM159.623 666.298L157.988 661.573L157.988 661.573L159.623 666.298ZM76.9604 724.519L81.2001 727.17L81.2001 727.17L76.9604 724.519ZM45.0756 827.03L40.1656 826.085L40.1656 826.085L45.0756 827.03ZM41.7757 844.382L36.8629 843.453L36.8628 843.453L41.7757 844.382ZM41.7744 844.389L46.6873 845.318L46.6873 845.318L41.7744 844.389ZM7 997.554L2.18889 996.193L0.827486 1001L5.6389 1002.37L7 997.554ZM7.96222 997.826L6.60112 1002.64L11.4121 1004L12.7733 999.188L7.96222 997.826ZM42.7574 844.573L47.6703 845.502L47.6703 845.502L42.7574 844.573ZM46.0576 827.219L50.9676 828.163L50.9676 828.163L46.0576 827.219ZM77.8083 725.049L82.048 727.7L82.048 727.7L77.8083 725.049ZM159.95 667.243L161.585 671.968L161.585 671.968L159.95 667.243ZM349.69 629.676L350.358 634.631L350.359 634.631L349.69 629.676ZM349.744 629.669L350.412 634.624L350.944 634.552L351.449 634.369L349.744 629.669ZM349.794 629.651L351.5 634.351L351.502 634.35L349.794 629.651ZM389.442 508.572L394.362 507.679L394.362 507.679L389.442 508.572ZM389.42 508.45L394.34 507.557L394.118 506.335L393.35 505.358L389.42 508.45ZM389.343 508.353L385.414 511.444L385.414 511.444L389.343 508.353ZM377.215 493.351L373.268 496.421L373.309 496.473L373.351 496.525L377.215 493.351ZM377.214 493.35L373.214 496.35L373.24 496.385L373.267 496.42L377.214 493.35ZM377.214 493.35L381.214 490.35L381.148 490.262L381.078 490.177L377.214 493.35ZM357.816 467.646L353.564 470.277L353.564 470.277L357.816 467.646ZM342.255 418.984L347.217 418.374L347.217 418.374L342.255 418.984ZM342.208 418.604L347.171 417.994L346.704 414.195L342.914 413.654L342.208 418.604ZM341.829 418.55L342.535 413.6L342.535 413.6L341.829 418.55ZM310.821 390.009L315.223 387.638L315.223 387.638L310.821 390.009ZM293.448 335.861L288.506 336.623L293.448 335.861ZM295.281 288.798L290.643 286.93L290.643 286.93L295.281 288.798ZM304.816 278.191L303.162 273.473L303.162 273.473L304.816 278.191ZM321.064 281.194L318.622 285.557L318.623 285.557L321.064 281.194ZM321.93 281.679L319.489 286.042L328.15 290.889L326.89 281.044L321.93 281.679ZM340.59 109.087C313.587 167.008 311.008 235.724 316.845 281.329L326.764 280.059C321.08 235.652 323.696 168.99 349.653 113.312L340.59 109.087ZM401.805 34.2816C373.84 53.6395 354.121 80.0629 340.59 109.087L349.653 113.312C362.596 85.5506 381.274 60.6553 407.497 42.5039L401.805 34.2816ZM511.564 2.00074C465.79 2.78824 429.794 14.9076 401.805 34.2816L407.497 42.5039C433.687 24.3748 467.713 12.7566 511.736 11.9993L511.564 2.00074ZM511.564 11.9993C555.729 12.7567 589.865 24.3769 616.14 42.5084L621.82 34.2779C593.748 14.9059 557.645 2.78814 511.735 2.00074L511.564 11.9993ZM616.14 42.5084C642.446 60.6616 661.182 85.558 674.164 113.318L683.223 109.082C669.649 80.0569 649.87 53.6343 621.82 34.2779L616.14 42.5084ZM674.164 113.318C700.2 168.994 702.824 235.652 697.123 280.057L707.042 281.331C712.897 235.724 710.31 167.005 683.223 109.082L674.164 113.318ZM697.123 280.057L696.997 281.041L706.916 282.314L707.042 281.33L697.123 280.057ZM704.393 286.043L705.258 285.56L700.386 276.828L699.52 277.311L704.393 286.043ZM705.258 285.561C711.313 282.183 715.143 282.097 717.474 282.912L720.772 273.471C714.694 271.348 707.769 272.709 700.386 276.828L705.258 285.561ZM717.474 282.912C719.802 283.725 722.153 285.969 724.052 290.67L733.324 286.926C730.839 280.771 726.852 275.596 720.772 273.471L717.474 282.912ZM724.052 290.671C727.926 300.265 728.442 316.63 725.585 335.097L735.468 336.625C738.402 317.654 738.232 299.079 733.324 286.926L724.052 290.671ZM725.585 335.097C722.762 353.347 716.804 372.631 708.701 387.632L717.499 392.384C726.246 376.192 732.506 355.774 735.468 336.625L725.585 335.097ZM708.701 387.632C700.393 403.013 690.747 412.256 681.291 413.6L682.699 423.5C697.196 421.44 708.921 408.266 717.499 392.384L708.701 387.632ZM681.291 413.6L680.912 413.654L682.32 423.554L682.699 423.5L681.291 413.6ZM676.654 417.993L676.607 418.373L686.532 419.595L686.579 419.215L676.654 417.993ZM676.607 418.372C673.925 440.133 669.011 453.247 661.712 465.009L670.208 470.282C678.402 457.08 683.705 442.526 686.532 419.596L676.607 418.372ZM661.712 465.009C656.676 473.123 650.461 480.68 642.643 490.171L650.361 496.529C658.081 487.158 664.754 479.071 670.208 470.282L661.712 465.009ZM642.765 490.028L642.764 490.029L650.238 496.672L650.239 496.672L642.765 490.028ZM642.642 490.171C638.901 494.712 634.819 499.667 630.41 505.255L638.26 511.449C642.596 505.956 646.615 501.076 650.36 496.53L642.642 490.171ZM630.411 505.254L630.334 505.351L638.182 511.548L638.26 511.45L630.411 505.254ZM629.339 507.555L629.317 507.677L639.155 509.467L639.177 509.345L629.339 507.555ZM629.317 507.676C614.451 589.321 649.947 626.255 672.303 634.352L675.708 624.95C659.094 618.932 624.923 587.628 639.155 509.468L629.317 507.676ZM672.306 634.353L672.356 634.371L675.756 624.967L675.706 624.949L672.306 634.353ZM673.391 634.625L673.444 634.632L674.774 624.72L674.721 624.713L673.391 634.625ZM673.444 634.632C761.212 646.413 821.031 657.56 862.806 671.97L866.067 662.516C823.255 647.749 762.55 636.503 674.774 624.721L673.444 634.632ZM862.806 671.97C904.389 686.313 927.541 703.7 942.596 727.707L951.068 722.394C934.426 695.857 909.035 677.337 866.067 662.516L862.806 671.97ZM942.596 727.707C957.888 752.092 965.22 783.841 973.771 828.166L983.59 826.272C975.098 782.253 967.514 748.62 951.068 722.394L942.596 727.707ZM973.771 828.166C974.849 833.756 975.945 839.53 977.078 845.505L986.903 843.641C985.77 837.669 984.672 831.879 983.59 826.272L973.771 828.166ZM977.078 845.505C984.884 886.649 994.444 937.045 1012.08 999.192L1021.7 996.461C1004.2 934.777 994.704 884.759 986.903 843.641L977.078 845.505ZM1018.26 1002.64L1019.22 1002.36L1016.49 992.744L1015.53 993.017L1018.26 1002.64ZM1022.67 996.188C1005.17 934.55 995.687 884.575 987.886 843.457L978.061 845.321C985.867 886.464 995.419 936.818 1013.05 998.919L1022.67 996.188ZM987.885 843.451L987.879 843.422L978.057 845.299L978.063 845.328L987.885 843.451ZM987.881 843.428C986.749 837.466 985.652 831.684 984.572 826.082L974.753 827.977C975.83 833.56 976.924 839.327 978.056 845.292L987.881 843.428ZM984.572 826.082C976.086 782.094 968.477 748.272 951.915 721.862L943.443 727.175C958.851 751.745 966.208 783.682 974.753 827.976L984.572 826.082ZM951.915 721.862C935.115 695.073 909.499 676.44 866.393 661.571L863.132 671.024C904.854 685.416 928.23 702.916 943.443 727.175L951.915 721.862ZM866.393 661.571C823.486 646.771 762.709 635.516 674.961 623.737L673.631 633.648C761.37 645.426 821.262 656.582 863.132 671.024L866.393 661.571ZM676.007 623.994C659.955 618.149 626.019 587.418 640.117 509.767L630.278 507.981C615.547 589.119 650.812 625.462 672.585 633.39L676.007 623.994ZM639.122 511.972C643.389 506.567 647.364 501.741 651.08 497.23L643.362 490.872C639.651 495.377 635.614 500.278 631.273 505.775L639.122 511.972ZM651.08 497.23C658.829 487.824 665.568 479.656 671.058 470.81L662.561 465.536C657.49 473.707 651.209 481.346 643.362 490.872L651.08 497.23ZM671.058 470.81C679.294 457.539 684.624 442.931 687.476 420.103L677.553 418.863C674.847 440.52 669.909 453.696 662.561 465.536L671.058 470.81ZM683.297 424.422C698.082 422.079 709.856 408.639 718.379 392.86L709.581 388.107C701.335 403.372 691.593 412.982 681.732 414.545L683.297 424.422ZM718.379 392.86C727.19 376.548 733.48 356.017 736.456 336.778L726.573 335.249C723.737 353.589 717.748 372.987 709.581 388.107L718.379 392.86ZM736.456 336.778C739.398 317.756 739.263 298.961 734.252 286.552L724.979 290.296C728.957 300.146 729.438 316.733 726.573 335.249L736.456 336.778ZM734.252 286.552C731.708 280.253 727.558 274.783 721.102 272.527L717.803 281.968C720.506 282.912 723.021 285.448 724.979 290.296L734.252 286.552ZM721.102 272.527C714.922 270.368 708.019 271.645 700.859 275.432L705.535 284.272C711.311 281.216 715.212 281.062 717.803 281.968L721.102 272.527ZM708.159 280.471C713.865 234.751 711.128 166.393 684.128 108.658L675.07 112.894C701.024 168.394 703.794 234.704 698.236 279.233L708.159 280.471ZM684.128 108.658C670.496 79.5068 650.612 52.9315 622.388 33.4548L616.708 41.6853C643.189 59.9589 662.029 85.0078 675.07 112.894L684.128 108.658ZM622.388 33.4548C594.134 13.9576 557.832 1.78972 511.744 1.00073L511.573 10.9993C555.916 11.7584 590.252 23.4286 616.708 41.6853L622.388 33.4548ZM506.659 5.91425L506.65 6.40883L516.649 6.58034L516.657 6.08575L506.659 5.91425ZM506.642 6.08575L506.65 6.58034L516.649 6.40883L516.64 5.91425L506.642 6.08575ZM406.928 41.6817C433.3 23.4269 467.525 11.7583 511.727 10.9993L511.555 1.00074C465.602 1.78984 429.407 13.9596 401.236 33.4593L406.928 41.6817ZM348.747 112.89C361.748 85.0018 380.531 59.9537 406.928 41.6817L401.236 33.4593C373.096 52.9379 353.273 79.5142 339.684 108.664L348.747 112.89ZM325.652 279.234C320.111 234.703 322.872 168.391 348.747 112.89L339.684 108.664C312.769 166.396 310.039 234.75 315.728 280.468L325.652 279.234ZM306.139 281.966C308.712 281.064 312.592 281.215 318.347 284.268L323.033 275.434C315.894 271.646 309.003 270.366 302.831 272.529L306.139 281.966ZM298.991 290.292C300.945 285.44 303.452 282.908 306.139 281.966L302.831 272.529C296.386 274.788 292.249 280.263 289.715 286.557L298.991 290.292ZM297.401 335.252C294.546 316.734 295.025 300.145 298.991 290.292L289.715 286.557C284.72 298.963 284.585 317.754 287.518 336.776L297.401 335.252ZM314.343 388.112C306.2 372.991 300.23 353.593 297.401 335.252L287.518 336.776C290.485 356.012 296.755 376.543 305.538 392.853L314.343 388.112ZM342.094 414.545C332.275 412.984 322.565 403.381 314.343 388.112L305.538 392.853C314.032 408.628 325.771 422.075 340.524 424.421L342.094 414.545ZM361.217 465.542C353.892 453.701 348.969 440.523 346.27 418.865L336.347 420.101C339.191 442.927 344.504 457.533 352.713 470.803L361.217 465.542ZM380.358 490.877C372.535 481.351 366.273 473.713 361.217 465.542L352.713 470.803C358.186 479.649 364.905 487.817 372.63 497.223L380.358 490.877ZM392.41 505.781C388.082 500.283 384.058 495.382 380.358 490.877L372.63 497.223C376.335 501.735 380.297 506.56 384.552 511.966L392.41 505.781ZM351.219 633.389C372.936 625.456 408.085 589.111 393.401 507.983L383.561 509.764C397.617 587.428 363.777 618.155 347.788 623.996L351.219 633.389ZM161.258 671.023C202.996 656.581 262.702 645.426 350.171 633.648L348.836 623.737C261.358 635.516 200.765 646.772 157.988 661.573L161.258 671.023ZM81.2001 727.17C96.3662 702.911 119.668 685.413 161.258 671.023L157.988 661.573C115.009 676.443 89.4692 695.079 72.7208 721.869L81.2001 727.17ZM49.9856 827.974C58.5042 783.68 65.8391 751.74 81.2001 727.17L72.7208 721.869C56.2105 748.278 48.6253 782.097 40.1656 826.085L49.9856 827.974ZM46.6886 845.311C47.8184 839.338 48.9105 833.564 49.9856 827.974L40.1656 826.085C39.0871 831.693 37.9921 837.482 36.8629 843.453L46.6886 845.311ZM46.6873 845.318L46.6887 845.311L36.8628 843.453L36.8614 843.46L46.6873 845.318ZM11.8111 998.915C29.383 936.815 38.9053 886.462 46.6873 845.318L36.8615 843.46C29.0843 884.578 19.6302 934.553 2.18889 996.193L11.8111 998.915ZM9.32332 993.015L8.3611 992.743L5.6389 1002.37L6.60112 1002.64L9.32332 993.015ZM37.8445 843.644C30.0673 884.762 20.6052 934.78 3.15111 996.465L12.7733 999.188C30.358 937.042 39.8883 886.646 47.6703 845.502L37.8445 843.644ZM41.1476 826.274C40.0691 831.882 38.974 837.672 37.8445 843.644L47.6703 845.502C48.8004 839.527 49.8926 833.753 50.9676 828.163L41.1476 826.274ZM73.5687 722.399C57.1733 748.624 49.6131 782.256 41.1476 826.274L50.9676 828.163C59.4922 783.837 66.802 752.087 82.048 727.7L73.5687 722.399ZM158.315 662.518C115.474 677.34 90.1589 695.862 73.5687 722.399L82.048 727.7C97.0559 703.694 120.134 686.31 161.585 671.968L158.315 662.518ZM349.023 624.721C261.517 636.503 200.997 647.75 158.315 662.518L161.585 671.968C203.228 657.559 262.86 646.412 350.358 634.631L349.023 624.721ZM349.076 624.714L349.022 624.721L350.359 634.631L350.412 634.624L349.076 624.714ZM348.089 624.95L348.038 624.969L351.449 634.369L351.5 634.351L348.089 624.95ZM384.523 509.465C398.712 587.636 364.64 618.938 348.087 624.951L351.502 634.35C373.802 626.249 409.18 589.311 394.362 507.679L384.523 509.465ZM384.501 509.343L384.523 509.465L394.362 507.679L394.34 507.557L384.501 509.343ZM385.414 511.444L385.491 511.542L393.35 505.358L393.273 505.261L385.414 511.444ZM373.351 496.525C377.085 501.071 381.092 505.95 385.414 511.444L393.273 505.261C388.878 499.674 384.808 494.719 381.079 490.178L373.351 496.525ZM373.267 496.42L373.268 496.421L381.161 490.282L381.161 490.281L373.267 496.42ZM373.214 496.35L373.214 496.35L381.214 490.35L381.214 490.35L373.214 496.35ZM353.564 470.277C359.001 479.065 365.654 487.153 373.35 496.523L381.078 490.177C373.284 480.686 367.088 473.129 362.068 465.016L353.564 470.277ZM337.292 419.594C340.109 442.523 345.396 457.075 353.564 470.277L362.068 465.016C354.791 453.253 349.891 440.137 347.217 418.374L337.292 419.594ZM337.245 419.214L337.292 419.594L347.217 418.374L347.171 417.994L337.245 419.214ZM341.123 423.5L341.502 423.554L342.914 413.654L342.535 413.6L341.123 423.5ZM306.418 392.379C314.968 408.257 326.658 421.438 341.123 423.5L342.535 413.6C333.122 412.258 323.508 403.024 315.223 387.638L306.418 392.379ZM288.506 336.623C291.459 355.77 297.7 376.188 306.418 392.379L315.223 387.638C307.145 372.636 301.204 353.351 298.39 335.099L288.506 336.623ZM290.643 286.93C285.751 299.081 285.581 317.653 288.506 336.623L298.39 335.099C295.542 316.632 296.055 300.263 299.919 290.665L290.643 286.93ZM303.162 273.473C297.094 275.6 293.119 280.779 290.643 286.93L299.919 290.665C301.813 285.96 304.157 283.72 306.47 282.91L303.162 273.473ZM323.506 276.831C316.144 272.71 309.231 271.345 303.162 273.473L306.47 282.91C308.781 282.1 312.589 282.181 318.622 285.557L323.506 276.831ZM324.372 277.315L323.506 276.831L318.623 285.557L319.489 286.042L324.372 277.315ZM316.845 281.329L316.971 282.313L326.89 281.044L326.764 280.059L316.845 281.329Z" fill="white" fill-opacity="0.5"/>
</svg>
